<?xml version="1.0" encoding="UTF-8" standalone="no"?>
<!DOCTYPE svg PUBLIC "-//W3C//DTD SVG 1.1//EN"
 "http://www.w3.org/Graphics/SVG/1.1/DTD/svg11.dtd">
<!-- Generated by graphviz version 2.49.3 (20211023.0002)
 -->
<!-- Title: structs Pages: 1 -->
<svg width="900pt" height="550pt"
 viewBox="0.00 0.00 648.00 396.14" xmlns="http://www.w3.org/2000/svg" xmlns:xlink="http://www.w3.org/1999/xlink">
<g id="graph0" class="graph" transform="scale(1.19 1.19) rotate(0) translate(4 460)">
<title>structs</title>
<polygon fill="white" stroke="transparent" points="-4,4 -4,-460 755,-460 755,4 -4,4"/>
<!-- [&lt;This is an example org&#45;mode&lt;br&gt;&lt;/br&gt;tree&gt;]; -->
<g id="node1" class="node">
<title>[&lt;This is an example org&#45;mode&lt;br&gt;&lt;/br&gt;tree&gt;];</title>
<polygon fill="none" stroke="black" points="11,-160 11,-196 185,-196 185,-160 11,-160"/>
<text text-anchor="start" x="14" y="-181.8" font-family="Times New Roman,serif" font-size="14.00">This is an example org&#45;mode</text>
<text text-anchor="start" x="87.5" y="-166.8" font-family="Times New Roman,serif" font-size="14.00">tree</text>
<polygon fill="none" stroke="black" points="8,-157 8,-199 188,-199 188,-157 8,-157"/>
</g>
<!-- [&lt;Branch A&gt;]; -->
<g id="node2" class="node">
<title>[&lt;Branch A&gt;];</title>
<polygon fill="none" stroke="black" points="243,-317 243,-338 305,-338 305,-317 243,-317"/>
<text text-anchor="start" x="246" y="-323.8" font-family="Times New Roman,serif" font-size="14.00">Branch A</text>
<polygon fill="none" stroke="black" points="240,-314.5 240,-341.5 308,-341.5 308,-314.5 240,-314.5"/>
</g>
<!-- [&lt;This is an example org&#45;mode&lt;br&gt;&lt;/br&gt;tree&gt;];&#45;&gt;[&lt;Branch A&gt;]; -->
<g id="edge1" class="edge">
<title>[&lt;This is an example org&#45;mode&lt;br&gt;&lt;/br&gt;tree&gt;];&#45;&gt;[&lt;Branch A&gt;];</title>
<path fill="none" stroke="black" d="M128.12,-203.11C160.41,-230.94 212.16,-275.55 244.28,-303.24"/>
<polygon fill="black" stroke="black" points="242.14,-306.02 252,-309.9 246.71,-300.72 242.14,-306.02"/>
</g>
<!-- [&lt;Branch B&gt;]; -->
<g id="node3" class="node">
<title>[&lt;Branch B&gt;];</title>
<polygon fill="none" stroke="black" points="244,-217 244,-238 305,-238 305,-217 244,-217"/>
<text text-anchor="start" x="247" y="-223.8" font-family="Times New Roman,serif" font-size="14.00">Branch B</text>
<polygon fill="none" stroke="black" points="240.5,-214.5 240.5,-241.5 307.5,-241.5 307.5,-214.5 240.5,-214.5"/>
</g>
<!-- [&lt;This is an example org&#45;mode&lt;br&gt;&lt;/br&gt;tree&gt;];&#45;&gt;[&lt;Branch B&gt;]; -->
<g id="edge2" class="edge">
<title>[&lt;This is an example org&#45;mode&lt;br&gt;&lt;/br&gt;tree&gt;];&#45;&gt;[&lt;Branch B&gt;];</title>
<path fill="none" stroke="black" d="M186.25,-203.07C198.72,-206.65 211.17,-210.23 222.59,-213.52"/>
<polygon fill="black" stroke="black" points="221.77,-216.92 232.34,-216.32 223.7,-210.19 221.77,-216.92"/>
</g>
<!-- [&lt;Branch C&gt;]; -->
<g id="node4" class="node">
<title>[&lt;Branch C&gt;];</title>
<polygon fill="none" stroke="black" points="376.5,-117 376.5,-138 437.5,-138 437.5,-117 376.5,-117"/>
<text text-anchor="start" x="379.5" y="-123.8" font-family="Times New Roman,serif" font-size="14.00">Branch C</text>
<polygon fill="none" stroke="black" points="373,-114.5 373,-141.5 440,-141.5 440,-114.5 373,-114.5"/>
</g>
<!-- [&lt;This is an example org&#45;mode&lt;br&gt;&lt;/br&gt;tree&gt;];&#45;&gt;[&lt;Branch C&gt;]; -->
<g id="edge3" class="edge">
<title>[&lt;This is an example org&#45;mode&lt;br&gt;&lt;/br&gt;tree&gt;];&#45;&gt;[&lt;Branch C&gt;];</title>
<path fill="none" stroke="black" d="M196.4,-162.11C249.14,-153.51 312.1,-143.24 355.06,-136.23"/>
<polygon fill="black" stroke="black" points="355.69,-139.67 364.99,-134.61 354.56,-132.76 355.69,-139.67"/>
</g>
<!-- [&lt;Branch D&gt;]; -->
<g id="node5" class="node">
<title>[&lt;Branch D&gt;];</title>
<polygon fill="none" stroke="black" points="520.5,-7 520.5,-28 582.5,-28 582.5,-7 520.5,-7"/>
<text text-anchor="start" x="523.5" y="-13.8" font-family="Times New Roman,serif" font-size="14.00">Branch D</text>
<polygon fill="none" stroke="black" points="517.5,-4.5 517.5,-31.5 585.5,-31.5 585.5,-4.5 517.5,-4.5"/>
</g>
<!-- [&lt;This is an example org&#45;mode&lt;br&gt;&lt;/br&gt;tree&gt;];&#45;&gt;[&lt;Branch D&gt;]; -->
<g id="edge4" class="edge">
<title>[&lt;This is an example org&#45;mode&lt;br&gt;&lt;/br&gt;tree&gt;];&#45;&gt;[&lt;Branch D&gt;];</title>
<path fill="none" stroke="black" d="M163.46,-152.93C214.42,-133.32 287.48,-105.66 352,-83 401.94,-65.46 459.46,-46.79 499.69,-33.98"/>
<polygon fill="black" stroke="black" points="500.8,-37.3 509.27,-30.93 498.68,-30.63 500.8,-37.3"/>
</g>
<!-- [&lt;Sub&#45;Branch 1&gt;]; -->
<g id="node6" class="node">
<title>[&lt;Sub&#45;Branch 1&gt;];</title>
<polygon fill="none" stroke="black" points="363.5,-427 363.5,-448 450.5,-448 450.5,-427 363.5,-427"/>
<text text-anchor="start" x="366.5" y="-433.8" font-family="Times New Roman,serif" font-size="14.00">Sub&#45;Branch 1</text>
<polygon fill="none" stroke="black" points="360,-424.5 360,-451.5 453,-451.5 453,-424.5 360,-424.5"/>
</g>
<!-- [&lt;Branch A&gt;];&#45;&gt;[&lt;Sub&#45;Branch 1&gt;]; -->
<g id="edge5" class="edge">
<title>[&lt;Branch A&gt;];&#45;&gt;[&lt;Sub&#45;Branch 1&gt;];</title>
<path fill="none" stroke="black" d="M296.55,-346.16C318.27,-364.48 351.96,-392.87 376.12,-413.24"/>
<polygon fill="black" stroke="black" points="374.02,-416.04 383.92,-419.81 378.53,-410.69 374.02,-416.04"/>
</g>
<!-- [&lt;Sub&#45;Branch 2&gt;]; -->
<g id="node7" class="node">
<title>[&lt;Sub&#45;Branch 2&gt;];</title>
<polygon fill="none" stroke="black" points="508.5,-327 508.5,-348 595.5,-348 595.5,-327 508.5,-327"/>
<text text-anchor="start" x="511.5" y="-333.8" font-family="Times New Roman,serif" font-size="14.00">Sub&#45;Branch 2</text>
<polygon fill="none" stroke="black" points="505,-324.5 505,-351.5 598,-351.5 598,-324.5 505,-324.5"/>
</g>
<!-- [&lt;Branch A&gt;];&#45;&gt;[&lt;Sub&#45;Branch 2&gt;]; -->
<g id="edge6" class="edge">
<title>[&lt;Branch A&gt;];&#45;&gt;[&lt;Sub&#45;Branch 2&gt;];</title>
<path fill="none" stroke="black" d="M316.25,-329.5C361.28,-331.13 433.96,-333.77 486.43,-335.67"/>
<polygon fill="black" stroke="black" points="486.52,-339.18 496.64,-336.05 486.78,-332.18 486.52,-339.18"/>
</g>
<!-- [&lt;Sub&#45;Branch 3&gt;]; -->
<g id="node8" class="node">
<title>[&lt;Sub&#45;Branch 3&gt;];</title>
<polygon fill="none" stroke="black" points="653.5,-217 653.5,-238 740.5,-238 740.5,-217 653.5,-217"/>
<text text-anchor="start" x="656.5" y="-223.8" font-family="Times New Roman,serif" font-size="14.00">Sub&#45;Branch 3</text>
<polygon fill="none" stroke="black" points="650,-214.5 650,-241.5 743,-241.5 743,-214.5 650,-214.5"/>
</g>
<!-- [&lt;Branch A&gt;];&#45;&gt;[&lt;Sub&#45;Branch 3&gt;]; -->
<g id="edge7" class="edge">
<title>[&lt;Branch A&gt;];&#45;&gt;[&lt;Sub&#45;Branch 3&gt;];</title>
<path fill="none" stroke="black" d="M316.08,-318.23C389.71,-300.72 544.58,-263.89 631.98,-243.1"/>
<polygon fill="black" stroke="black" points="632.86,-246.49 641.78,-240.78 631.24,-239.68 632.86,-246.49"/>
</g>
</g>
</svg>
